<svg xmlns="http://www.w3.org/2000/svg" width="175.945" height="40" viewBox="0 0 175.945 40"><path d="M2573.686,1575.965V1587.9l-.085.085-16.262,16.1h16.347v11.876h-40.2v-12.076l16.061-15.905h-16.061v-12.019Zm107.335,0h-11.335v12.117l28.155,27.883h11.591V1604.1Zm-77.162,12.019-12.136-12.019h-11.948v11.759l.262.26,11.536,11.424,4.726,4.68,11.993,11.876h11.229v-12.474Zm48.874-12.019-10.249,10.153-1.887,1.866-5.281,5.23v-17.249h-11.4v40h11.809l9.724-9.626,9.72,9.626h8.494v-8.874l-3.032-3-6.457-6.394,9.489-9.393v-12.336Zm-67.059,25.97a7.015,7.015,0,1,0,7.083,7.015A7.05,7.05,0,0,0,2585.673,1601.935Zm89.911,0a7.015,7.015,0,1,0,7.083,7.015A7.05,7.05,0,0,0,2675.584,1601.935Z" transform="translate(-2533.486 -1575.965)" fill="#ff8c1a"></path></svg>